<svg width="253" height="27" viewBox="0 0 253 27" fill="none" xmlns="http://www.w3.org/2000/svg">
<mask id="mask0_0_4" style="mask-type:luminance" maskUnits="userSpaceOnUse" x="0" y="0" width="253" height="27">
<path d="M253 0H0V27H253V0Z" fill="white"/>
</mask>
<g mask="url(#mask0_0_4)">
<path d="M30.0058 26.8965H27.634C27.1275 26.8965 26.7174 26.4903 26.7174 25.9885V12.0425C26.7174 8.88054 29.2983 6.3239 32.4902 6.3239H39.7827C43.7224 6.3239 47.0832 9.35045 47.2279 13.2531C47.3806 17.3549 44.0601 20.7398 39.9596 20.7398H34.9505C34.251 20.7398 33.8088 19.9991 34.1465 19.3938L35.441 17.0443C35.6018 16.7496 35.9073 16.5743 36.245 16.5743H39.847C41.4792 16.5743 42.9103 15.3558 43.0148 13.7469C43.1354 11.9788 41.7123 10.4973 39.9515 10.4973H32.4822C31.6139 10.4973 30.9144 11.1903 30.9144 12.0504V25.9965C30.9144 26.4982 30.5043 26.9044 29.9978 26.9044L30.0058 26.8965Z" fill="#E25054" stroke="#E25054" stroke-width="0.25" stroke-miterlimit="10"/>
<path d="M13.2984 21.1858H11.224C5.53159 21.1858 0.77181 16.9566 0.160757 11.3496C0.120556 10.9593 0.0964355 10.5611 0.0964355 10.1708V1.01151C0.0964355 0.50974 0.514524 0.0955811 1.02105 0.0955811H3.3929C3.89944 0.0955811 4.30948 0.501776 4.30948 1.00355V10.1628C4.30948 10.4097 4.32556 10.6566 4.34968 10.8956C4.72757 14.3841 7.68636 17.0124 11.224 17.0124H13.2984C16.8441 17.0124 19.7948 14.3841 20.1727 10.8956C20.1969 10.6566 20.2129 10.4097 20.2129 10.1628V1.01151C20.2129 0.50974 20.623 0.103546 21.1295 0.103546H23.5014C24.0079 0.103546 24.4179 0.50974 24.4179 1.01151V10.1708C24.4179 10.5611 24.3938 10.9593 24.3536 11.3496C23.7426 16.9646 18.9908 21.1938 13.2904 21.1938L13.2984 21.1858Z" fill="#E25054" stroke="#E25054" stroke-width="0.25" stroke-miterlimit="10"/>
<path d="M108.389 20.6761H100.92C97.7282 20.6761 95.1473 18.1195 95.1473 14.9575V1.01151C95.1473 0.509741 95.5574 0.103546 96.0639 0.103546H98.4358C98.9423 0.103546 99.3523 0.509741 99.3523 1.01151V14.9575C99.3523 15.8177 100.052 16.5106 100.92 16.5106H108.277C109.909 16.5106 111.34 15.292 111.445 13.6832C111.565 11.9151 110.142 10.4336 108.381 10.4336H103.372C102.673 10.4336 102.231 9.69293 102.568 9.08762L103.863 6.73806C104.024 6.44337 104.329 6.26815 104.667 6.26815H108.205C112.144 6.26815 115.505 9.2947 115.65 13.1974C115.803 17.2991 112.482 20.6841 108.381 20.6841L108.389 20.6761Z" fill="white"/>
<path d="M69.1294 20.7319H55.3003C52.1084 20.7319 49.5275 18.1752 49.5275 15.0133V1.01151C49.5275 0.509741 49.9375 0.103546 50.444 0.103546H52.8159C53.3224 0.103546 53.7325 0.509741 53.7325 1.01151V15.0212C53.7325 15.8814 54.432 16.5743 55.3003 16.5743H69.1294C69.6359 16.5743 70.046 16.9805 70.046 17.4823V19.8319C70.046 20.3336 69.6359 20.7398 69.1294 20.7398V20.7319Z" fill="white"/>
<path d="M91.9394 20.6761H89.5675C89.061 20.6761 88.6509 20.2699 88.6509 19.7681V13.4681C88.6509 11.7876 87.2761 10.4336 85.5876 10.4336H79.6218C77.9254 10.4336 76.5585 11.7956 76.5585 13.4681V19.7681C76.5585 20.2699 76.1485 20.6761 75.6419 20.6761H73.2701C72.7636 20.6761 72.3535 20.2699 72.3535 19.7681V13.4681C72.3535 9.48584 75.6098 6.26018 79.6299 6.26018H85.5957C89.6158 6.26018 92.872 9.48584 92.872 13.4681V19.7681C92.872 20.2699 92.462 20.6761 91.9555 20.6761H91.9394Z" fill="white"/>
<path d="M82.5967 17.7372C83.8134 17.7372 84.7997 16.7601 84.7997 15.5549C84.7997 14.3496 83.8134 13.3726 82.5967 13.3726C81.38 13.3726 80.3937 14.3496 80.3937 15.5549C80.3937 16.7601 81.38 17.7372 82.5967 17.7372Z" fill="white"/>
<path d="M134.48 0.398224H133.378V26.8965H134.48V0.398224Z" fill="white"/>
<path fill-rule="evenodd" clip-rule="evenodd" d="M227.376 7.57433H227.304L223.195 15.1168H228.092L227.376 7.57433ZM227.376 7.57433H227.304L223.195 15.1168H228.092L227.376 7.57433ZM252.992 4.10176V0.398224H152.289V4.10973H157.7V4.77875H152.289V8.38672H157.7V9.05575H152.289V12.7752H157.7V13.4442H152.289V17.2195H157.7V17.8885H152.289V21.5044H157.7V22.1734H152.289V25.8531H252.992V22.1734H247.581V21.5044H252.992V17.8885H247.581V17.2195H252.992V13.4442H247.581V12.7752H252.992V9.05575H247.581V8.38672H252.992V4.77875H247.581V4.10973H252.992V4.10176ZM176.819 9.35044H171.746C171.923 8.64955 171.802 8.12389 171.432 7.74159C171.087 7.36725 170.468 7.16813 169.599 7.16813C168.433 7.16813 167.252 7.92477 167.059 8.82477C166.777 10.1549 168.305 10.5849 169.575 10.9354C172.486 11.7159 176.884 12.0186 175.83 16.9248C175.01 20.7478 170.813 22.5557 166.576 22.5557C162.339 22.5557 158.817 21.3212 159.798 16.3911H164.872C164.486 18.1035 165.547 19.0274 167.38 19.0274C168.554 19.0274 170.17 18.4221 170.435 17.2195C170.966 14.7584 167.091 15.2841 163.481 13.5478C161.8 12.7434 161.246 11.0867 161.664 9.12743C162.789 4.82654 166.85 3.64778 170.685 3.64778C174.52 3.64778 178.058 4.97787 176.819 9.35044ZM192.377 14.8062H184.208L183.38 18.6531H192.265L191.509 22.1734H177.551L181.442 4.02212H195.4L194.644 7.54247H185.76L184.956 11.2858H193.125L192.377 14.8062ZM205.209 22.1734L201.969 8.27521H201.921L198.938 22.1734H194.371L198.262 4.02212H205.37L208.61 17.546L208.666 17.4982L211.561 4.02212H216.128L212.236 22.1734H205.209ZM229.04 22.1734L228.582 18.6292H221.145L219.191 22.1734H214.118L225.245 4.02212H231.436L234.773 22.1734H229.04ZM241.784 22.1734H236.711L240.602 4.02212H245.675L241.784 22.1734ZM227.304 7.56636L223.195 15.1088H228.092L227.376 7.56636H227.304Z" fill="white"/>
</g>
</svg>
